<mxfile host="app.diagrams.net" agent="Mozilla/5.0 (Windows NT 10.0; Win64; x64) AppleWebKit/537.36 (KHTML, like Gecko) Chrome/138.0.0.0 Safari/537.36 Edg/138.0.0.0" version="27.2.0">
  <diagram id="dMFPq8Ma2SvLUkesaSkS" name="Page-1">
    <mxGraphModel dx="1477" dy="777" grid="1" gridSize="10" guides="1" tooltips="1" connect="1" arrows="1" fold="1" page="1" pageScale="1" pageWidth="1169" pageHeight="827" background="light-dark(#FFFFFF,#F7F7F7)" math="0" shadow="0">
      <root>
        <mxCell id="0" />
        <mxCell id="1" parent="0" />
        <mxCell id="d45avjFu-AIYiAAqqC4H-20" value="" style="edgeStyle=elbowEdgeStyle;elbow=horizontal;endArrow=classic;html=1;curved=0;rounded=1;endSize=8;startSize=8;fontSize=12;entryDx=0;entryDy=0;entryPerimeter=0;labelBackgroundColor=none;strokeColor=#788AA3;fontColor=default;exitX=0.65;exitY=0.578;exitDx=0;exitDy=0;exitPerimeter=0;" parent="1" edge="1">
          <mxGeometry width="50" height="50" relative="1" as="geometry">
            <mxPoint x="40" y="400" as="sourcePoint" />
            <mxPoint x="40" y="400" as="targetPoint" />
            <Array as="points" />
          </mxGeometry>
        </mxCell>
        <mxCell id="PbpaKHzW4S6jHEZwpi4d-41" value="" style="endArrow=classic;html=1;rounded=1;fontSize=12;startSize=8;endSize=8;curved=1;labelBackgroundColor=none;strokeColor=#788AA3;fontColor=default;verticalAlign=middle;entryX=-0.044;entryY=0.5;entryDx=0;entryDy=0;exitX=1.009;exitY=0.063;exitDx=0;exitDy=0;exitPerimeter=0;entryPerimeter=0;" parent="1" target="PbpaKHzW4S6jHEZwpi4d-42" edge="1">
          <mxGeometry width="50" height="50" relative="1" as="geometry">
            <mxPoint x="560.5600000000002" y="230.52999999999997" as="sourcePoint" />
            <mxPoint x="638.9300000000001" y="230" as="targetPoint" />
          </mxGeometry>
        </mxCell>
        <mxCell id="PbpaKHzW4S6jHEZwpi4d-42" value="m_dot" style="rounded=1;whiteSpace=wrap;html=1;labelBackgroundColor=none;fillColor=light-dark(#D4E1F5,#9AC7BF);strokeColor=#788AA3;fontColor=light-dark(#46495D,#46495D);" parent="1" vertex="1">
          <mxGeometry x="609.9300000000001" y="220" width="50" height="20" as="geometry" />
        </mxCell>
        <mxCell id="PbpaKHzW4S6jHEZwpi4d-53" value="" style="group" parent="1" vertex="1" connectable="0">
          <mxGeometry x="490.0000000000001" y="70" width="195" height="90" as="geometry" />
        </mxCell>
        <mxCell id="PbpaKHzW4S6jHEZwpi4d-54" value="" style="shape=datastore;whiteSpace=wrap;html=1;fillColor=#C3ABD0;strokeColor=#868686;" parent="PbpaKHzW4S6jHEZwpi4d-53" vertex="1">
          <mxGeometry x="67.5" width="60" height="60" as="geometry" />
        </mxCell>
        <mxCell id="PbpaKHzW4S6jHEZwpi4d-55" value="ideal_gas_properties.db" style="rounded=0;whiteSpace=wrap;html=1;strokeColor=none;fillColor=none;fontColor=#868686;" parent="PbpaKHzW4S6jHEZwpi4d-53" vertex="1">
          <mxGeometry x="22.5" y="70" width="150" height="20" as="geometry" />
        </mxCell>
        <mxCell id="PbpaKHzW4S6jHEZwpi4d-56" value="" style="endArrow=none;dashed=1;html=1;rounded=0;strokeColor=#868686;exitX=0;exitY=0.7;exitDx=0;exitDy=0;" parent="1" source="PbpaKHzW4S6jHEZwpi4d-54" edge="1">
          <mxGeometry width="50" height="50" relative="1" as="geometry">
            <mxPoint x="583.1500000000001" y="123" as="sourcePoint" />
            <mxPoint x="470" y="191" as="targetPoint" />
          </mxGeometry>
        </mxCell>
        <mxCell id="QhyKsPdQeMrUCFwZ5U9G-18" value="" style="endArrow=classic;html=1;rounded=1;fontSize=12;startSize=8;endSize=8;curved=1;labelBackgroundColor=none;strokeColor=#788AA3;fontColor=default;verticalAlign=middle;exitX=1.004;exitY=0.548;exitDx=0;exitDy=0;exitPerimeter=0;entryX=0;entryY=0.5;entryDx=0;entryDy=0;" parent="1" target="QhyKsPdQeMrUCFwZ5U9G-19" edge="1">
          <mxGeometry width="50" height="50" relative="1" as="geometry">
            <mxPoint x="560.21" y="380.88" as="sourcePoint" />
            <mxPoint x="679.9300000000001" y="381" as="targetPoint" />
          </mxGeometry>
        </mxCell>
        <mxCell id="QhyKsPdQeMrUCFwZ5U9G-19" value="Wnet_work_based" style="rounded=1;whiteSpace=wrap;html=1;labelBackgroundColor=none;fillColor=light-dark(#D4E1F5,#9AC7BF);strokeColor=#788AA3;fontColor=light-dark(#46495D,#46495D);" parent="1" vertex="1">
          <mxGeometry x="609.9300000000001" y="371" width="120" height="20" as="geometry" />
        </mxCell>
        <mxCell id="QhyKsPdQeMrUCFwZ5U9G-23" value="Wnet_heat_based" style="rounded=1;whiteSpace=wrap;html=1;labelBackgroundColor=none;fillColor=light-dark(#D4E1F5,#9AC7BF);strokeColor=#788AA3;fontColor=light-dark(#46495D,#46495D);" parent="1" vertex="1">
          <mxGeometry x="609.9300000000001" y="395" width="120" height="20" as="geometry" />
        </mxCell>
        <mxCell id="QhyKsPdQeMrUCFwZ5U9G-25" value="bwr" style="rounded=1;whiteSpace=wrap;html=1;labelBackgroundColor=none;fillColor=light-dark(#D4E1F5,#9AC7BF);strokeColor=#788AA3;fontColor=light-dark(#46495D,#46495D);" parent="1" vertex="1">
          <mxGeometry x="609.9300000000001" y="421" width="50" height="20" as="geometry" />
        </mxCell>
        <mxCell id="QhyKsPdQeMrUCFwZ5U9G-31" value="thermal_effiency" style="rounded=1;whiteSpace=wrap;html=1;labelBackgroundColor=none;fillColor=light-dark(#D4E1F5,#9AC7BF);strokeColor=#788AA3;fontColor=light-dark(#46495D,#46495D);" parent="1" vertex="1">
          <mxGeometry x="609.9300000000001" y="451" width="120" height="20" as="geometry" />
        </mxCell>
        <mxCell id="QhyKsPdQeMrUCFwZ5U9G-33" value="power_output" style="rounded=1;whiteSpace=wrap;html=1;labelBackgroundColor=none;fillColor=light-dark(#D4E1F5,#9AC7BF);strokeColor=#788AA3;fontColor=light-dark(#46495D,#46495D);" parent="1" vertex="1">
          <mxGeometry x="609.9300000000001" y="481" width="120" height="20" as="geometry" />
        </mxCell>
        <mxCell id="Z81KaxpP7HEMf0QDX8c_-1" value="Wc" style="rounded=1;whiteSpace=wrap;html=1;labelBackgroundColor=none;fillColor=light-dark(#D4E1F5,#9AC7BF);strokeColor=#788AA3;fontColor=light-dark(#46495D,#46495D);" parent="1" vertex="1">
          <mxGeometry x="609.9300000000001" y="250" width="50" height="20" as="geometry" />
        </mxCell>
        <mxCell id="Z81KaxpP7HEMf0QDX8c_-4" value="Wt" style="rounded=1;whiteSpace=wrap;html=1;labelBackgroundColor=none;fillColor=light-dark(#D4E1F5,#9AC7BF);strokeColor=#788AA3;fontColor=light-dark(#46495D,#46495D);" parent="1" vertex="1">
          <mxGeometry x="609.9300000000001" y="281" width="50" height="20" as="geometry" />
        </mxCell>
        <mxCell id="Z81KaxpP7HEMf0QDX8c_-7" value="Qin" style="rounded=1;whiteSpace=wrap;html=1;labelBackgroundColor=none;fillColor=light-dark(#D4E1F5,#9AC7BF);strokeColor=#788AA3;fontColor=light-dark(#46495D,#46495D);" parent="1" vertex="1">
          <mxGeometry x="609.9300000000001" y="311" width="50" height="20" as="geometry" />
        </mxCell>
        <mxCell id="Z81KaxpP7HEMf0QDX8c_-9" value="Qout" style="rounded=1;whiteSpace=wrap;html=1;labelBackgroundColor=none;fillColor=light-dark(#D4E1F5,#9AC7BF);strokeColor=#788AA3;fontColor=light-dark(#46495D,#46495D);" parent="1" vertex="1">
          <mxGeometry x="609.9300000000001" y="341" width="50" height="20" as="geometry" />
        </mxCell>
        <mxCell id="ZeFgxJd7Y2cIf3lmYooC-1" value="" style="endArrow=classic;html=1;rounded=1;fontSize=12;startSize=8;endSize=8;curved=1;labelBackgroundColor=none;strokeColor=#788AA3;fontColor=default;verticalAlign=middle;exitX=1.018;exitY=0.157;exitDx=0;exitDy=0;exitPerimeter=0;entryX=0;entryY=0.5;entryDx=0;entryDy=0;" parent="1" target="Z81KaxpP7HEMf0QDX8c_-1" edge="1">
          <mxGeometry width="50" height="50" relative="1" as="geometry">
            <mxPoint x="561.19" y="259.66999999999996" as="sourcePoint" />
            <mxPoint x="679.9300000000001" y="260" as="targetPoint" />
          </mxGeometry>
        </mxCell>
        <mxCell id="ZeFgxJd7Y2cIf3lmYooC-2" value="" style="endArrow=classic;html=1;rounded=1;fontSize=12;startSize=8;endSize=8;curved=1;labelBackgroundColor=none;strokeColor=#788AA3;fontColor=default;verticalAlign=middle;exitX=1.018;exitY=0.257;exitDx=0;exitDy=0;exitPerimeter=0;entryX=0;entryY=0.5;entryDx=0;entryDy=0;" parent="1" target="Z81KaxpP7HEMf0QDX8c_-4" edge="1">
          <mxGeometry width="50" height="50" relative="1" as="geometry">
            <mxPoint x="561.19" y="290.66999999999996" as="sourcePoint" />
            <mxPoint x="669.9300000000001" y="291" as="targetPoint" />
          </mxGeometry>
        </mxCell>
        <mxCell id="ZeFgxJd7Y2cIf3lmYooC-3" value="" style="endArrow=classic;html=1;rounded=1;fontSize=12;startSize=8;endSize=8;curved=1;labelBackgroundColor=none;strokeColor=#788AA3;fontColor=default;verticalAlign=middle;exitX=1.023;exitY=0.355;exitDx=0;exitDy=0;exitPerimeter=0;entryX=0;entryY=0.5;entryDx=0;entryDy=0;" parent="1" target="Z81KaxpP7HEMf0QDX8c_-7" edge="1">
          <mxGeometry width="50" height="50" relative="1" as="geometry">
            <mxPoint x="561.54" y="321.04999999999995" as="sourcePoint" />
            <mxPoint x="679.9300000000001" y="321" as="targetPoint" />
          </mxGeometry>
        </mxCell>
        <mxCell id="ZeFgxJd7Y2cIf3lmYooC-4" value="" style="endArrow=classic;html=1;rounded=1;fontSize=12;startSize=8;endSize=8;curved=1;labelBackgroundColor=none;strokeColor=#788AA3;fontColor=default;verticalAlign=middle;entryX=0;entryY=0.5;entryDx=0;entryDy=0;exitX=1.029;exitY=0.45;exitDx=0;exitDy=0;exitPerimeter=0;" parent="1" target="Z81KaxpP7HEMf0QDX8c_-9" edge="1">
          <mxGeometry width="50" height="50" relative="1" as="geometry">
            <mxPoint x="561.96" y="350.5" as="sourcePoint" />
            <mxPoint x="685.9300000000001" y="351" as="targetPoint" />
          </mxGeometry>
        </mxCell>
        <mxCell id="ZeFgxJd7Y2cIf3lmYooC-5" value="" style="endArrow=classic;html=1;rounded=1;fontSize=12;startSize=8;endSize=8;curved=1;labelBackgroundColor=none;strokeColor=#788AA3;fontColor=default;verticalAlign=middle;exitX=1.023;exitY=0.625;exitDx=0;exitDy=0;exitPerimeter=0;entryX=0;entryY=0.5;entryDx=0;entryDy=0;" parent="1" target="QhyKsPdQeMrUCFwZ5U9G-23" edge="1">
          <mxGeometry width="50" height="50" relative="1" as="geometry">
            <mxPoint x="561.54" y="404.75" as="sourcePoint" />
            <mxPoint x="679.9300000000001" y="405" as="targetPoint" />
          </mxGeometry>
        </mxCell>
        <mxCell id="ZeFgxJd7Y2cIf3lmYooC-6" value="" style="endArrow=classic;html=1;rounded=1;fontSize=12;startSize=8;endSize=8;curved=1;labelBackgroundColor=none;strokeColor=#788AA3;fontColor=default;verticalAlign=middle;exitX=1.001;exitY=0.71;exitDx=0;exitDy=0;exitPerimeter=0;entryX=0;entryY=0.5;entryDx=0;entryDy=0;" parent="1" target="QhyKsPdQeMrUCFwZ5U9G-25" edge="1">
          <mxGeometry width="50" height="50" relative="1" as="geometry">
            <mxPoint x="560" y="431.1" as="sourcePoint" />
            <mxPoint x="679.9300000000001" y="431" as="targetPoint" />
          </mxGeometry>
        </mxCell>
        <mxCell id="ZeFgxJd7Y2cIf3lmYooC-7" value="" style="endArrow=classic;html=1;rounded=1;fontSize=12;startSize=8;endSize=8;curved=1;labelBackgroundColor=none;strokeColor=#788AA3;fontColor=default;verticalAlign=middle;exitX=1.015;exitY=0.804;exitDx=0;exitDy=0;exitPerimeter=0;entryX=0;entryY=0.5;entryDx=0;entryDy=0;" parent="1" target="QhyKsPdQeMrUCFwZ5U9G-31" edge="1">
          <mxGeometry width="50" height="50" relative="1" as="geometry">
            <mxPoint x="560.98" y="460.24" as="sourcePoint" />
            <mxPoint x="679.9300000000001" y="460" as="targetPoint" />
          </mxGeometry>
        </mxCell>
        <mxCell id="ZeFgxJd7Y2cIf3lmYooC-8" value="" style="endArrow=classic;html=1;rounded=1;fontSize=12;startSize=8;endSize=8;curved=1;labelBackgroundColor=none;strokeColor=#788AA3;fontColor=default;verticalAlign=middle;exitX=1.004;exitY=0.907;exitDx=0;exitDy=0;exitPerimeter=0;entryX=0;entryY=0.5;entryDx=0;entryDy=0;" parent="1" target="QhyKsPdQeMrUCFwZ5U9G-33" edge="1">
          <mxGeometry width="50" height="50" relative="1" as="geometry">
            <mxPoint x="560.21" y="492.1700000000001" as="sourcePoint" />
            <mxPoint x="679.9300000000001" y="491" as="targetPoint" />
          </mxGeometry>
        </mxCell>
        <mxCell id="f0ZR3aNY_IDM1Q_sTKvQ-1" value="Diffuser" style="rounded=1;whiteSpace=wrap;html=1;labelBackgroundColor=none;fillColor=light-dark(#A9C4EB,#A9C4EB);strokeColor=#788AA3;fontColor=light-dark(#46495D,#333333);" parent="1" vertex="1">
          <mxGeometry x="270" y="193" width="70" height="80" as="geometry" />
        </mxCell>
        <mxCell id="f0ZR3aNY_IDM1Q_sTKvQ-2" value="Initial Conditions" style="rounded=1;whiteSpace=wrap;html=1;labelBackgroundColor=none;fillColor=light-dark(#B2C9AB,#CCFFCC);strokeColor=#788AA3;fontColor=light-dark(#46495D,#46495D);" parent="1" vertex="1">
          <mxGeometry x="100" y="193" width="70" height="220" as="geometry" />
        </mxCell>
        <mxCell id="f0ZR3aNY_IDM1Q_sTKvQ-5" value="" style="endArrow=classic;html=1;rounded=1;fontSize=12;startSize=8;endSize=8;curved=1;labelBackgroundColor=none;strokeColor=#788AA3;fontColor=default;verticalAlign=middle;exitX=0.976;exitY=0.093;exitDx=0;exitDy=0;exitPerimeter=0;" parent="1" edge="1">
          <mxGeometry width="50" height="50" relative="1" as="geometry">
            <mxPoint x="170" y="222.76" as="sourcePoint" />
            <mxPoint x="270" y="222.76" as="targetPoint" />
          </mxGeometry>
        </mxCell>
        <mxCell id="f0ZR3aNY_IDM1Q_sTKvQ-6" value="V_a" style="edgeLabel;html=1;align=center;verticalAlign=middle;resizable=0;points=[];fontColor=light-dark(#46495D,#46495D);labelBackgroundColor=light-dark(#D9D9D9,#DBDBDB);" parent="f0ZR3aNY_IDM1Q_sTKvQ-5" vertex="1" connectable="0">
          <mxGeometry x="0.32" relative="1" as="geometry">
            <mxPoint x="-32" as="offset" />
          </mxGeometry>
        </mxCell>
        <mxCell id="f0ZR3aNY_IDM1Q_sTKvQ-7" value="" style="endArrow=classic;html=1;rounded=1;fontSize=12;startSize=8;endSize=8;curved=1;labelBackgroundColor=none;strokeColor=#788AA3;fontColor=default;verticalAlign=middle;exitX=0.976;exitY=0.093;exitDx=0;exitDy=0;exitPerimeter=0;" parent="1" edge="1">
          <mxGeometry width="50" height="50" relative="1" as="geometry">
            <mxPoint x="170" y="242.76" as="sourcePoint" />
            <mxPoint x="270" y="242.76" as="targetPoint" />
          </mxGeometry>
        </mxCell>
        <mxCell id="f0ZR3aNY_IDM1Q_sTKvQ-8" value="T_a" style="edgeLabel;html=1;align=center;verticalAlign=middle;resizable=0;points=[];fontColor=light-dark(#46495D,#46495D);labelBackgroundColor=light-dark(#D9D9D9,#DBDBDB);" parent="f0ZR3aNY_IDM1Q_sTKvQ-7" vertex="1" connectable="0">
          <mxGeometry x="0.32" relative="1" as="geometry">
            <mxPoint x="-32" as="offset" />
          </mxGeometry>
        </mxCell>
        <mxCell id="f0ZR3aNY_IDM1Q_sTKvQ-9" value="" style="endArrow=classic;html=1;rounded=1;fontSize=12;startSize=8;endSize=8;curved=1;labelBackgroundColor=none;strokeColor=#788AA3;fontColor=default;verticalAlign=middle;exitX=0.976;exitY=0.093;exitDx=0;exitDy=0;exitPerimeter=0;" parent="1" edge="1">
          <mxGeometry width="50" height="50" relative="1" as="geometry">
            <mxPoint x="340" y="223" as="sourcePoint" />
            <mxPoint x="440" y="223" as="targetPoint" />
          </mxGeometry>
        </mxCell>
        <mxCell id="f0ZR3aNY_IDM1Q_sTKvQ-10" value="V_1" style="edgeLabel;html=1;align=center;verticalAlign=middle;resizable=0;points=[];fontColor=light-dark(#46495D,#46495D);labelBackgroundColor=light-dark(#D9D9D9,#DBDBDB);" parent="f0ZR3aNY_IDM1Q_sTKvQ-9" vertex="1" connectable="0">
          <mxGeometry x="0.32" relative="1" as="geometry">
            <mxPoint x="-32" as="offset" />
          </mxGeometry>
        </mxCell>
        <mxCell id="f0ZR3aNY_IDM1Q_sTKvQ-11" value="" style="endArrow=classic;html=1;rounded=1;fontSize=12;startSize=8;endSize=8;curved=1;labelBackgroundColor=none;strokeColor=#788AA3;fontColor=default;verticalAlign=middle;exitX=0.976;exitY=0.093;exitDx=0;exitDy=0;exitPerimeter=0;" parent="1" edge="1">
          <mxGeometry width="50" height="50" relative="1" as="geometry">
            <mxPoint x="340" y="243" as="sourcePoint" />
            <mxPoint x="440" y="243" as="targetPoint" />
          </mxGeometry>
        </mxCell>
        <mxCell id="f0ZR3aNY_IDM1Q_sTKvQ-12" value="h_1" style="edgeLabel;html=1;align=center;verticalAlign=middle;resizable=0;points=[];fontColor=light-dark(#46495D,#46495D);labelBackgroundColor=light-dark(#D9D9D9,#DBDBDB);" parent="f0ZR3aNY_IDM1Q_sTKvQ-11" vertex="1" connectable="0">
          <mxGeometry x="0.32" relative="1" as="geometry">
            <mxPoint x="-32" as="offset" />
          </mxGeometry>
        </mxCell>
        <mxCell id="f0ZR3aNY_IDM1Q_sTKvQ-13" value="Brayton Cycle" style="rounded=1;whiteSpace=wrap;html=1;labelBackgroundColor=none;fillColor=light-dark(#A9C4EB,#A9C4EB);strokeColor=#788AA3;fontColor=light-dark(#46495D,#333333);" parent="1" vertex="1">
          <mxGeometry x="440" y="193" width="70" height="220" as="geometry" />
        </mxCell>
        <mxCell id="f0ZR3aNY_IDM1Q_sTKvQ-14" value="" style="endArrow=classic;html=1;rounded=1;fontSize=12;startSize=8;endSize=8;curved=1;labelBackgroundColor=none;strokeColor=#788AA3;fontColor=default;verticalAlign=middle;exitX=0.983;exitY=0.456;exitDx=0;exitDy=0;exitPerimeter=0;entryX=0;entryY=0.452;entryDx=0;entryDy=0;entryPerimeter=0;" parent="1" target="f0ZR3aNY_IDM1Q_sTKvQ-13" edge="1">
          <mxGeometry width="50" height="50" relative="1" as="geometry">
            <mxPoint x="170" y="292.5" as="sourcePoint" />
            <mxPoint x="310" y="292.5" as="targetPoint" />
          </mxGeometry>
        </mxCell>
        <mxCell id="f0ZR3aNY_IDM1Q_sTKvQ-15" value="rc" style="edgeLabel;html=1;align=center;verticalAlign=middle;resizable=0;points=[];fontColor=light-dark(#46495D,#46495D);labelBackgroundColor=light-dark(#D9D9D9,#DBDBDB);" parent="f0ZR3aNY_IDM1Q_sTKvQ-14" vertex="1" connectable="0">
          <mxGeometry x="0.32" relative="1" as="geometry">
            <mxPoint x="-35" as="offset" />
          </mxGeometry>
        </mxCell>
        <mxCell id="f0ZR3aNY_IDM1Q_sTKvQ-16" value="" style="endArrow=classic;html=1;rounded=1;fontSize=12;startSize=8;endSize=8;curved=1;labelBackgroundColor=none;strokeColor=#788AA3;fontColor=default;verticalAlign=middle;entryX=-0.029;entryY=0.544;entryDx=0;entryDy=0;entryPerimeter=0;exitX=1.01;exitY=0.361;exitDx=0;exitDy=0;exitPerimeter=0;" parent="1" target="f0ZR3aNY_IDM1Q_sTKvQ-13" edge="1">
          <mxGeometry width="50" height="50" relative="1" as="geometry">
            <mxPoint x="170" y="313" as="sourcePoint" />
            <mxPoint x="306" y="314" as="targetPoint" />
          </mxGeometry>
        </mxCell>
        <mxCell id="f0ZR3aNY_IDM1Q_sTKvQ-17" value="T3" style="edgeLabel;html=1;align=center;verticalAlign=middle;resizable=0;points=[];fontColor=light-dark(#46495D,#46495D);labelBackgroundColor=light-dark(#D9D9D9,#DBDBDB);" parent="f0ZR3aNY_IDM1Q_sTKvQ-16" vertex="1" connectable="0">
          <mxGeometry x="0.32" relative="1" as="geometry">
            <mxPoint x="-34" as="offset" />
          </mxGeometry>
        </mxCell>
        <mxCell id="f0ZR3aNY_IDM1Q_sTKvQ-18" value="" style="endArrow=classic;html=1;rounded=1;fontSize=12;startSize=8;endSize=8;curved=1;entryX=0;entryY=0.636;entryDx=0;entryDy=0;labelBackgroundColor=none;strokeColor=#788AA3;fontColor=default;entryPerimeter=0;exitX=1.017;exitY=0.725;exitDx=0;exitDy=0;exitPerimeter=0;" parent="1" target="f0ZR3aNY_IDM1Q_sTKvQ-13" edge="1">
          <mxGeometry width="50" height="50" relative="1" as="geometry">
            <mxPoint x="170" y="333" as="sourcePoint" />
            <mxPoint x="307" y="333" as="targetPoint" />
          </mxGeometry>
        </mxCell>
        <mxCell id="f0ZR3aNY_IDM1Q_sTKvQ-19" value="c_s_eff" style="edgeLabel;html=1;align=center;verticalAlign=middle;resizable=0;points=[];fontColor=light-dark(#46495D,#46495D);labelBackgroundColor=light-dark(#D9D9D9,#DBDBDB);" parent="f0ZR3aNY_IDM1Q_sTKvQ-18" vertex="1" connectable="0">
          <mxGeometry x="0.7231" y="-2" relative="1" as="geometry">
            <mxPoint x="-93" y="-2" as="offset" />
          </mxGeometry>
        </mxCell>
        <mxCell id="f0ZR3aNY_IDM1Q_sTKvQ-20" value="" style="endArrow=classic;html=1;rounded=1;fontSize=12;startSize=8;endSize=8;curved=1;entryX=0;entryY=0.636;entryDx=0;entryDy=0;labelBackgroundColor=none;strokeColor=#788AA3;fontColor=default;entryPerimeter=0;exitX=1.017;exitY=0.725;exitDx=0;exitDy=0;exitPerimeter=0;" parent="1" edge="1">
          <mxGeometry width="50" height="50" relative="1" as="geometry">
            <mxPoint x="170" y="353.08" as="sourcePoint" />
            <mxPoint x="440" y="353.08" as="targetPoint" />
          </mxGeometry>
        </mxCell>
        <mxCell id="f0ZR3aNY_IDM1Q_sTKvQ-21" value="t_s_eff" style="edgeLabel;html=1;align=center;verticalAlign=middle;resizable=0;points=[];fontColor=light-dark(#46495D,#46495D);labelBackgroundColor=light-dark(#D9D9D9,#DBDBDB);" parent="f0ZR3aNY_IDM1Q_sTKvQ-20" vertex="1" connectable="0">
          <mxGeometry x="0.7231" y="-2" relative="1" as="geometry">
            <mxPoint x="-93" y="-2" as="offset" />
          </mxGeometry>
        </mxCell>
      </root>
    </mxGraphModel>
  </diagram>
</mxfile>
